<?xml version="1.0" encoding="utf-8"?>
<!-- Generator: Adobe Illustrator 26.1.0, SVG Export Plug-In . SVG Version: 6.00 Build 0)  -->
<svg version="1.1" id="Layer_1" xmlns="http://www.w3.org/2000/svg" xmlns:xlink="http://www.w3.org/1999/xlink" x="0px" y="0px"
	 viewBox="0 0 419.5 255.8" style="enable-background:new 0 0 419.5 255.8;" xml:space="preserve">
<style type="text/css">
	.st0{fill:#FFFFFF;}
	.st1{fill:#D71920;}
</style>
<path class="st0" d="M108.2,141.8c-0.7,1.2-1.6,2.4-2.5,3.4h-5.1c-0.9,0-1.7-0.8-1.7-1.7v-14.1h-8.1v5c0,0.9-0.8,1.7-1.7,1.7
	s-1.7-0.8-1.7-1.7v-11.5H79v20.7c0,0.9-0.8,1.7-1.7,1.7h-2.6c-0.9-1.1-1.8-2.2-2.5-3.4h3.4v-20.7c0-0.9,0.8-1.7,1.7-1.7h11.8
	c0.9,0,1.7,0.8,1.7,1.7v4.8h9.8c0.9,0,1.7,0.8,1.7,1.7v14.1L108.2,141.8L108.2,141.8z"/>
<path class="st1" d="M111,131.2c0,0.4,0,0.7,0,1.1c0,0.4,0,0.7-0.1,1.1c0,0.3-0.1,0.6-0.1,0.9c0,0.2-0.1,0.4-0.1,0.5
	c-0.1,0.4-0.2,0.8-0.3,1.2c-0.2,0.7-0.4,1.4-0.6,2.1c-0.1,0.2-0.1,0.4-0.2,0.5c-0.2,0.4-0.3,0.8-0.5,1.2c-0.1,0.2-0.2,0.4-0.3,0.6
	c-0.2,0.4-0.4,0.8-0.6,1.2h-5.8v-14.1c0-0.9-0.8-1.7-1.7-1.7h-9.8v-4.8c0-0.9-0.8-1.7-1.7-1.7H77.3c-0.9,0-1.7,0.8-1.7,1.7v20.7
	h-3.4c-0.2-0.4-0.4-0.8-0.6-1.2c-0.1-0.1-0.2-0.3-0.2-0.5c-0.2-0.4-0.4-0.9-0.6-1.4c-0.1-0.2-0.1-0.4-0.2-0.5
	c-0.2-0.7-0.5-1.4-0.6-2.1c-0.1-0.4-0.2-0.8-0.3-1.2c0-0.2-0.1-0.4-0.1-0.5c0-0.3-0.1-0.6-0.1-0.9c0-0.4-0.1-0.7-0.1-1.1
	c0-0.4,0-0.7,0-1.1c0-11.5,9.3-20.8,20.8-20.8C101.7,110.4,111,119.8,111,131.2z"/>
<path class="st1" d="M105.7,145.2C105.6,145.2,105.6,145.2,105.7,145.2c-0.3,0.3-0.5,0.5-0.7,0.8c-0.9,0.9-2,1.8-3.1,2.5
	c-0.3,0.2-0.5,0.3-0.8,0.5c-0.1,0-0.1,0.1-0.1,0.1c-0.2,0.1-0.4,0.2-0.6,0.4c-0.1,0.1-0.2,0.1-0.3,0.1c-0.2,0.1-0.4,0.2-0.7,0.4
	c-0.1,0-0.2,0.1-0.2,0.1c-0.3,0.1-0.6,0.3-0.8,0.4c-0.2,0.1-0.5,0.2-0.7,0.3c-0.2,0.1-0.4,0.1-0.6,0.2c-0.2,0.1-0.4,0.2-0.7,0.2
	c-0.3,0.1-0.7,0.2-1,0.3c-0.3,0.1-0.6,0.1-0.8,0.2c-0.2,0.1-0.4,0.1-0.6,0.1c-0.2,0-0.4,0.1-0.5,0.1c-0.1,0-0.1,0-0.2,0
	c-0.3,0.1-0.6,0.1-0.9,0.1c-0.3,0-0.7,0.1-1.1,0.1c-0.3,0-0.7,0-1.1,0c-0.7,0-1.4,0-2.1-0.1c-0.2,0-0.5-0.1-0.8-0.1
	c-0.3,0-0.5-0.1-0.8-0.1c-0.2,0-0.5-0.1-0.8-0.1c-0.3-0.1-0.6-0.1-0.8-0.2c-0.3-0.1-0.5-0.1-0.8-0.2c-0.2-0.1-0.5-0.1-0.7-0.2
	c-0.3-0.1-0.5-0.2-0.8-0.3c-0.4-0.2-0.8-0.3-1.2-0.5c-0.2-0.1-0.5-0.2-0.7-0.3c-0.1,0-0.2-0.1-0.2-0.1c-0.2-0.1-0.5-0.2-0.7-0.4
	c-0.1-0.1-0.2-0.1-0.2-0.1c-0.2-0.1-0.3-0.2-0.5-0.3c-0.2-0.1-0.4-0.2-0.5-0.4c-0.3-0.2-0.7-0.4-1-0.7c-0.2-0.2-0.4-0.3-0.7-0.5
	c-0.8-0.6-1.5-1.4-2.2-2.1h2.6c0.9,0,1.7-0.8,1.7-1.7v-20.7h8.3v11.5c0,0.9,0.8,1.7,1.7,1.7s1.7-0.8,1.7-1.7v-5h8.1v14.1
	c0,0.9,0.8,1.7,1.7,1.7H105.7z"/>
<path d="M133.6,126.4h-1.4c-0.1,0-0.2,0-0.2,0.1l-4,5.7l-4.3-5.7c-0.1-0.1-0.1-0.1-0.2-0.1h-1.2c-0.1,0-0.2,0.1-0.2,0.2v9.2
	c0,0.1,0.1,0.3,0.2,0.3h1.3c0.1,0,0.2-0.1,0.2-0.3v-6.2c0-0.1,0-0.1,0-0.2c0,0.1,0.1,0.1,0.1,0.1l3.7,5c0.1,0.1,0.1,0.1,0.2,0.1h0.4
	c0.1,0,0.2,0,0.2-0.1l3.5-5.1c0,0,0,0,0-0.1l0,6.5c0,0.1,0.1,0.3,0.2,0.3h1.4c0.1,0,0.2-0.1,0.2-0.3v-9.2
	C133.9,126.5,133.8,126.4,133.6,126.4z"/>
<path d="M146.4,126.4H140c-0.9,0-1.5,0.2-1.9,0.5c-0.4,0.4-0.5,1-0.5,1.9v4.9c0,0.9,0.2,1.5,0.5,1.9s1,0.5,1.9,0.5h6.4
	c0.9,0,1.5-0.2,1.9-0.5s0.5-1,0.5-1.9v-4.9c0-0.9-0.2-1.5-0.5-1.9C147.9,126.6,147.3,126.4,146.4,126.4z M146.8,128.1v6.2h-7.1v-6.2
	H146.8z"/>
<path d="M159.6,126.4h-5.2c-0.9,0-1.5,0.2-1.9,0.5c-0.4,0.4-0.5,1-0.5,1.9v4.9c0,0.9,0.2,1.5,0.5,1.9s1,0.5,1.9,0.5h5.2
	c0.9,0,1.5-0.2,1.9-0.5c0.4-0.4,0.5-1,0.5-1.9v-0.7c0-0.1-0.1-0.2-0.2-0.2l-1.5-0.3c-0.1,0-0.1,0-0.2,0.1s-0.1,0.1-0.1,0.2v1.7h-5.9
	v-6.2h5.9v1.5c0,0.1,0,0.1,0.1,0.2s0.1,0.1,0.2,0.1l1.5-0.3c0.1,0,0.2-0.1,0.2-0.2v-0.5c0-0.9-0.2-1.6-0.5-1.9
	C161.1,126.6,160.5,126.4,159.6,126.4z"/>
<path d="M175.5,126.4h-10.2c-0.1,0-0.2,0.1-0.2,0.2v9.2c0,0.1,0.1,0.3,0.2,0.3h1.5c0.1,0,0.2-0.1,0.2-0.3v-7.7h6.7v7.7
	c0,0.1,0.1,0.3,0.2,0.3h1.5c0.1,0,0.2-0.1,0.2-0.3v-9.2C175.7,126.5,175.6,126.4,175.5,126.4z"/>
<path d="M187,126.4h-7.4c-0.1,0-0.2,0.1-0.2,0.2v9.2c0,0.1,0.1,0.3,0.2,0.3h1.5c0.1,0,0.2-0.1,0.2-0.3v-3.3h5.6
	c0.8,0,1.3-0.2,1.6-0.5c0.4-0.3,0.6-0.9,0.6-1.6v-2.1c0-0.7-0.2-1.2-0.6-1.6C188.3,126.6,187.8,126.4,187,126.4z M181.4,128.1h5
	c0.4,0,0.5,0.1,0.6,0.1c0.1,0.1,0.1,0.3,0.1,0.6v1.3c0,0.4-0.1,0.5-0.1,0.6c-0.1,0.1-0.2,0.1-0.6,0.1h-5L181.4,128.1L181.4,128.1z"
	/>
<path d="M201,126.4h-6.4c-0.9,0-1.5,0.2-1.9,0.5c-0.4,0.4-0.5,1-0.5,1.9v4.9c0,0.9,0.2,1.5,0.5,1.9s1,0.5,1.9,0.5h6.4
	c0.9,0,1.5-0.2,1.9-0.5s0.5-1,0.5-1.9v-4.9c0-0.9-0.2-1.5-0.5-1.9C202.5,126.6,201.9,126.4,201,126.4z M201.4,128.1v6.2h-7.1v-6.2
	H201.4z"/>
<path d="M216.3,134.3h-7.1v-2.4h4.2c0.1,0,0.2-0.1,0.2-0.3v-1.2c0-0.1-0.1-0.2-0.2-0.2h-4.2v-2.1h7.1c0.1,0,0.3-0.1,0.3-0.2v-1.2
	c0-0.1-0.1-0.2-0.3-0.2h-8.9c-0.1,0-0.2,0.1-0.2,0.2v9.2c0,0.1,0.1,0.3,0.2,0.3h8.9c0.1,0,0.2-0.1,0.2-0.3v-1.3
	C216.6,134.4,216.4,134.3,216.3,134.3z"/>
<path d="M224,131l3.2-2.5c0.2-0.2,0.5-0.3,0.7-0.4c0.2-0.1,0.4-0.1,0.6-0.1h0.5c0.1,0,0.2-0.1,0.2-0.2v-1.2c0-0.1-0.1-0.2-0.2-0.2
	h-0.8c-0.3,0-0.6,0-0.8,0.1s-0.5,0.2-0.7,0.3c-0.2,0.1-0.5,0.3-0.9,0.6c-0.3,0.2-0.7,0.6-1.2,0.9c-0.4,0.4-0.8,0.7-1.1,0.9
	c-0.3,0.2-0.6,0.4-0.8,0.6c-0.2,0.1-0.4,0.2-0.5,0.3c-0.1,0.1-0.3,0.1-0.4,0.1h-0.1v-3.6c0-0.1-0.1-0.2-0.2-0.2H220
	c-0.1,0-0.3,0.1-0.3,0.2v9.2c0,0.1,0.1,0.3,0.3,0.3h1.5c0.1,0,0.2-0.1,0.2-0.3v-4h0.3l5.6,4.2c0,0,0.1,0.1,0.1,0.1h2.2
	c0.1,0,0.2-0.1,0.2-0.2c0-0.1,0-0.2-0.1-0.3L224,131z"/>
<path d="M241.9,126.4h-10c-0.1,0-0.2,0.1-0.2,0.2v1.2c0,0.1,0.1,0.3,0.2,0.3h4v7.7c0,0.1,0.1,0.3,0.2,0.3h1.5c0.1,0,0.2-0.1,0.2-0.3
	v-7.7h4c0.1,0,0.2-0.1,0.2-0.2v-1.2C242.1,126.5,242,126.4,241.9,126.4z"/>
<path class="st1" d="M350.7,126.4h-5.2c-0.9,0-1.5,0.2-1.9,0.5c-0.4,0.4-0.5,1-0.5,1.9v4.9c0,0.9,0.2,1.5,0.5,1.9s1,0.5,1.9,0.5h5.2
	c0.9,0,1.5-0.2,1.9-0.5s0.5-1,0.5-1.9v-0.7c0-0.1-0.1-0.2-0.2-0.2l-1.5-0.3c-0.1,0-0.1,0-0.2,0.1s-0.1,0.1-0.1,0.2v1.7h-5.9v-6.2
	h5.9v1.5c0,0.1,0,0.1,0.1,0.2c0.1,0.1,0.1,0.1,0.2,0.1l1.5-0.3c0.1,0,0.2-0.1,0.2-0.2v-0.5c0-0.9-0.2-1.6-0.5-1.9
	C352.2,126.6,351.6,126.4,350.7,126.4z"/>
<path class="st1" d="M251.4,131l3.2-2.5c0.2-0.2,0.5-0.3,0.7-0.4c0.2-0.1,0.4-0.1,0.6-0.1h0.5c0.1,0,0.2-0.1,0.2-0.2v-1.2
	c0-0.1-0.1-0.2-0.2-0.2h-0.8c-0.3,0-0.6,0-0.8,0.1c-0.2,0.1-0.5,0.2-0.7,0.3c-0.2,0.1-0.5,0.3-0.9,0.6c-0.3,0.2-0.7,0.6-1.2,0.9
	c-0.4,0.4-0.8,0.7-1.1,0.9c-0.3,0.2-0.6,0.4-0.8,0.6c-0.2,0.1-0.4,0.2-0.5,0.3c-0.1,0.1-0.3,0.1-0.4,0.1h-0.1v-3.6
	c0-0.1-0.1-0.2-0.3-0.2h-1.5c-0.1,0-0.2,0.1-0.2,0.2v9.2c0,0.1,0.1,0.3,0.2,0.3h1.5c0.1,0,0.3-0.1,0.3-0.3v-4h0.3l5.6,4.2
	c0,0,0.1,0.1,0.1,0.1h2.2c0.1,0,0.2-0.1,0.2-0.2c0-0.1,0-0.2-0.1-0.3L251.4,131z"/>
<path class="st1" d="M268.9,126.4h-6.4c-0.9,0-1.5,0.2-1.9,0.5c-0.4,0.4-0.5,1-0.5,1.9v4.9c0,0.9,0.2,1.5,0.5,1.9s1,0.5,1.9,0.5h6.4
	c0.9,0,1.5-0.2,1.9-0.5s0.5-1,0.5-1.9v-4.9c0-0.9-0.2-1.5-0.5-1.9C270.5,126.6,269.9,126.4,268.9,126.4z M269.3,128.1v6.2h-7.1v-6.2
	H269.3z"/>
<path class="st1" d="M286.3,126.4h-1.4c-0.1,0-0.2,0-0.2,0.1l-4,5.7l-4.3-5.7c0-0.1-0.1-0.1-0.2-0.1H275c-0.1,0-0.2,0.1-0.2,0.2v9.2
	c0,0.1,0.1,0.3,0.2,0.3h1.3c0.1,0,0.2-0.1,0.2-0.3v-6.2c0-0.1,0-0.1,0-0.2c0,0.1,0.1,0.1,0.1,0.1l3.7,5c0,0.1,0.1,0.1,0.2,0.1h0.4
	c0.1,0,0.2,0,0.2-0.1l3.5-5.1c0,0,0,0,0-0.1l0,6.5c0,0.1,0.1,0.3,0.2,0.3h1.4c0.1,0,0.2-0.1,0.2-0.3v-9.2
	C286.5,126.5,286.4,126.4,286.3,126.4z"/>
<path class="st1" d="M300.7,126.4h-10.2c-0.1,0-0.2,0.1-0.2,0.2v9.2c0,0.1,0.1,0.3,0.2,0.3h1.5c0.1,0,0.2-0.1,0.2-0.3v-7.7h6.7v7.7
	c0,0.1,0.1,0.3,0.3,0.3h1.5c0.1,0,0.2-0.1,0.2-0.3v-9.2C301,126.5,300.8,126.4,300.7,126.4z"/>
<path class="st1" d="M314.9,126.4h-8.6c-0.1,0-0.2,0.1-0.3,0.2c0,1.2,0,2.3-0.1,3.2c0,0.9-0.1,1.6-0.1,2.2c0,0.6-0.1,1-0.2,1.4
	c-0.1,0.3-0.2,0.5-0.3,0.7c-0.1,0.1-0.2,0.2-0.3,0.2c-0.1,0-0.3,0.1-0.5,0.1h-0.7c-0.1,0-0.2,0.1-0.2,0.2v1.2c0,0.1,0.1,0.3,0.2,0.3
	h1c0.7,0,1.3-0.2,1.6-0.5c0.4-0.3,0.7-0.8,0.9-1.5c0.2-0.6,0.3-1.5,0.4-2.5c0.1-0.9,0.1-2.1,0.2-3.4h5.1v7.7c0,0.1,0.1,0.3,0.2,0.3
	h1.5c0.1,0,0.2-0.1,0.2-0.3v-9.2C315.1,126.5,315,126.4,314.9,126.4z"/>
<path class="st1" d="M327.6,134.3h-7.1v-2.4h4.2c0.1,0,0.2-0.1,0.2-0.3v-1.2c0-0.1-0.1-0.2-0.2-0.2h-4.2v-2.1h7.1
	c0.1,0,0.2-0.1,0.2-0.2v-1.2c0-0.1-0.1-0.2-0.2-0.2h-8.9c-0.1,0-0.2,0.1-0.2,0.2v9.2c0,0.1,0.1,0.3,0.2,0.3h8.9
	c0.1,0,0.2-0.1,0.2-0.3v-1.3C327.9,134.4,327.7,134.3,327.6,134.3z"/>
<path class="st1" d="M335,131l3.2-2.5c0.2-0.2,0.5-0.3,0.7-0.4c0.2-0.1,0.4-0.1,0.6-0.1h0.5c0.1,0,0.2-0.1,0.2-0.2v-1.2
	c0-0.1-0.1-0.2-0.2-0.2h-0.8c-0.3,0-0.6,0-0.8,0.1s-0.5,0.2-0.7,0.3c-0.2,0.1-0.5,0.3-0.9,0.6c-0.3,0.2-0.7,0.6-1.2,0.9
	c-0.5,0.4-0.8,0.7-1.1,0.9c-0.3,0.2-0.6,0.4-0.8,0.6c-0.2,0.1-0.4,0.2-0.5,0.3c-0.1,0.1-0.3,0.1-0.4,0.1h0v-3.6
	c0-0.1-0.1-0.2-0.3-0.2H331c-0.1,0-0.3,0.1-0.3,0.2v9.2c0,0.1,0.1,0.3,0.3,0.3h1.5c0.1,0,0.3-0.1,0.3-0.3v-4h0.3l5.6,4.2
	c0,0,0.1,0.1,0.1,0.1h2.2c0.1,0,0.2-0.1,0.2-0.2c0-0.1,0-0.2-0.1-0.3L335,131z"/>
</svg>
